<svg xmlns="http://www.w3.org/2000/svg" width="13.565" height="18.087" viewBox="0 0 13.565 18.087">
  <path id="clipboard" d="M11.869,2.261H8.74a1.868,1.868,0,0,0,.021-.283,1.978,1.978,0,1,0-3.956,0,1.868,1.868,0,0,0,.021.283H1.7A1.7,1.7,0,0,0,0,3.956V16.391a1.7,1.7,0,0,0,1.7,1.7H11.869a1.7,1.7,0,0,0,1.7-1.7V3.956A1.7,1.7,0,0,0,11.869,2.261ZM6.783,1.13a.848.848,0,1,1-.848.848A.846.846,0,0,1,6.783,1.13Zm5.652,15.261a.567.567,0,0,1-.565.565H1.7a.567.567,0,0,1-.565-.565V3.956A.567.567,0,0,1,1.7,3.391h1.7V4.1a.425.425,0,0,0,.424.424H9.75a.425.425,0,0,0,.424-.424V3.391h1.7a.567.567,0,0,1,.565.565Z" fill="#9fa6b2"/>
</svg>
