<svg xmlns="http://www.w3.org/2000/svg" width="25" height="22.218" viewBox="0 0 25 22.218">
  <path id="code" d="M9.893,22.277l-1.085-.308a.258.258,0,0,1-.178-.321L14.736.257a.258.258,0,0,1,.321-.178l1.085.308a.258.258,0,0,1,.178.321L10.214,22.095A.263.263,0,0,1,9.893,22.277ZM6.612,16.839l.8-.907a.215.215,0,0,0-.022-.308L2.142,11.176,7.393,6.727a.215.215,0,0,0,.022-.308l-.8-.907A.215.215,0,0,0,6.3,5.495L.05,11.015a.214.214,0,0,0,0,.325L6.3,16.861a.219.219,0,0,0,.308-.022Zm12.035.017,6.254-5.52a.214.214,0,0,0,0-.325L18.646,5.495a.223.223,0,0,0-.308.017l-.8.907a.215.215,0,0,0,.022.308l5.251,4.448-5.251,4.448a.215.215,0,0,0-.022.308l.8.907A.215.215,0,0,0,18.646,16.857Z" transform="translate(0.025 -0.069)" fill="#9fa6b2"/>
</svg>
