<svg xmlns="http://www.w3.org/2000/svg" width="21.177" height="22" viewBox="0 0 21.177 22">
  <path id="cog" d="M37.919,20.919l-1.446-.835a8.657,8.657,0,0,0,0-2.169l1.446-.835a1.062,1.062,0,0,0,.49-1.22,10.981,10.981,0,0,0-2.552-4.417,1.065,1.065,0,0,0-1.306-.19l-1.444.834A8.61,8.61,0,0,0,31.229,11V9.333A1.065,1.065,0,0,0,30.41,8.3a11.077,11.077,0,0,0-5.091,0,1.065,1.065,0,0,0-.82,1.036V11a8.609,8.609,0,0,0-1.878,1.086l-1.444-.834a1.065,1.065,0,0,0-1.306.19,10.982,10.982,0,0,0-2.552,4.417,1.062,1.062,0,0,0,.49,1.22l1.446.835a8.657,8.657,0,0,0,0,2.169l-1.446.835a1.062,1.062,0,0,0-.49,1.22,10.982,10.982,0,0,0,2.552,4.417,1.065,1.065,0,0,0,1.306.19l1.444-.834A8.608,8.608,0,0,0,24.5,27v1.668a1.065,1.065,0,0,0,.82,1.036,11.077,11.077,0,0,0,5.091,0,1.065,1.065,0,0,0,.82-1.036V27a8.611,8.611,0,0,0,1.878-1.086l1.444.834a1.065,1.065,0,0,0,1.306-.19,10.982,10.982,0,0,0,2.552-4.417,1.062,1.062,0,0,0-.49-1.22Zm-2.9,4.456-2.054-1.186A7.663,7.663,0,0,1,29.81,26.01v2.372a9.631,9.631,0,0,1-3.892,0V26.01a7.665,7.665,0,0,1-3.151-1.821l-2.054,1.186a9.581,9.581,0,0,1-1.948-3.369L20.82,20.82a7.728,7.728,0,0,1,0-3.641l-2.055-1.186a9.587,9.587,0,0,1,1.948-3.37l2.054,1.187a7.652,7.652,0,0,1,3.151-1.822V9.617a9.616,9.616,0,0,1,3.892,0v2.372a7.652,7.652,0,0,1,3.151,1.822l2.054-1.187a9.587,9.587,0,0,1,1.948,3.37L34.909,17.18a7.727,7.727,0,0,1,0,3.641l2.055,1.186a9.581,9.581,0,0,1-1.948,3.369ZM27.864,14.742A4.258,4.258,0,1,0,32.122,19,4.263,4.263,0,0,0,27.864,14.742Zm0,7.1A2.839,2.839,0,1,1,30.7,19,2.842,2.842,0,0,1,27.864,21.839Z" transform="translate(-17.276 -8)" fill="#9fa6b2"/>
</svg>
