<svg xmlns="http://www.w3.org/2000/svg" width="14" height="16" viewBox="0 0 14 16">
  <path id="copy" d="M13.561,2.061,11.939.439A1.5,1.5,0,0,0,10.879,0H5.5A1.5,1.5,0,0,0,4,1.5V3H1.5A1.5,1.5,0,0,0,0,4.5v10A1.5,1.5,0,0,0,1.5,16h7A1.5,1.5,0,0,0,10,14.5V13h2.5A1.5,1.5,0,0,0,14,11.5V3.121a1.5,1.5,0,0,0-.439-1.061ZM11,1.015a.5.5,0,0,1,.232.131l1.621,1.621A.5.5,0,0,1,12.985,3H11ZM9,14.5a.5.5,0,0,1-.5.5h-7a.5.5,0,0,1-.5-.5V4.5A.5.5,0,0,1,1.5,4H4v7.5A1.5,1.5,0,0,0,5.5,13H9Zm4-3a.5.5,0,0,1-.5.5h-7a.5.5,0,0,1-.5-.5V1.5A.5.5,0,0,1,5.5,1H10V3.25a.752.752,0,0,0,.75.75H13Z" fill="#9fa6b2"/>
</svg>
