<svg xmlns="http://www.w3.org/2000/svg" width="18.44" height="18.44" viewBox="0 0 18.44 18.44">
  <path id="external-link" d="M15.847,9.22H15.27a.288.288,0,0,0-.288.288v7.2a.576.576,0,0,1-.576.576H1.729a.576.576,0,0,1-.576-.576V4.034a.576.576,0,0,1,.576-.576h7.2a.288.288,0,0,0,.288-.288V2.593A.288.288,0,0,0,8.932,2.3h-7.2A1.729,1.729,0,0,0,0,4.034V16.711A1.729,1.729,0,0,0,1.729,18.44H14.406a1.729,1.729,0,0,0,1.729-1.729v-7.2A.288.288,0,0,0,15.847,9.22ZM18.008,0l-4.9.012a.432.432,0,0,0-.432.432V.8a.432.432,0,0,0,.432.432l3.241-.012.025.026L4.736,12.888a.432.432,0,0,0,0,.612l.2.2a.432.432,0,0,0,.612,0L17.19,2.065l.026.025L17.2,5.332a.432.432,0,0,0,.432.432H18a.432.432,0,0,0,.432-.432l.012-4.9A.432.432,0,0,0,18.008,0Z" fill="#9fa6b2"/>
</svg>
