<svg xmlns="http://www.w3.org/2000/svg" width="16.5" height="22" viewBox="0 0 16.5 22">
  <path id="file-user" d="M15.894,4.21l-3.6-3.6A2.062,2.062,0,0,0,10.834,0H2.062A2.069,2.069,0,0,0,0,2.066V19.938A2.063,2.063,0,0,0,2.062,22H14.438A2.063,2.063,0,0,0,16.5,19.938V5.671a2.072,2.072,0,0,0-.606-1.461ZM11,1.4a.676.676,0,0,1,.318.18l3.6,3.6a.676.676,0,0,1,.18.318H11Zm.686,19.225H4.813V19.287a1.367,1.367,0,0,1,1.429-1.412,15.33,15.33,0,0,0,2.009.3,15.568,15.568,0,0,0,2.009-.3,1.367,1.367,0,0,1,1.429,1.412v1.338Zm3.438-.687a.69.69,0,0,1-.687.688H13.063V19.287a2.877,2.877,0,0,0-.49-1.61A2.76,2.76,0,0,0,10.259,16.5c-.836,0-1.047.3-2.009.3s-1.171-.3-2.009-.3a2.759,2.759,0,0,0-2.313,1.176,2.873,2.873,0,0,0-.491,1.61v1.338H2.062a.69.69,0,0,1-.687-.687V2.066a.693.693,0,0,1,.688-.691H9.626V5.847a1.026,1.026,0,0,0,1.031,1.028h4.468ZM4.813,12.375A3.438,3.438,0,1,0,8.25,8.938,3.438,3.438,0,0,0,4.813,12.375Zm5.5,0A2.063,2.063,0,1,1,8.25,10.313,2.065,2.065,0,0,1,10.313,12.375Z" fill="#9fa6b2"/>
</svg>
