<svg xmlns="http://www.w3.org/2000/svg" width="20.025" height="26.7" viewBox="0 0 20.025 26.7">
  <path id="file-code" d="M19.292,5.107,14.917.733A2.5,2.5,0,0,0,13.147,0H2.5A2.5,2.5,0,0,0,0,2.5V24.2a2.5,2.5,0,0,0,2.5,2.5H17.522a2.5,2.5,0,0,0,2.5-2.5V6.877a2.5,2.5,0,0,0-.733-1.77Zm-1.18,1.18a.829.829,0,0,1,.219.388H13.35V1.694a.828.828,0,0,1,.388.219Zm-.59,18.744H2.5a.834.834,0,0,1-.834-.834V2.5A.834.834,0,0,1,2.5,1.669h9.178V7.092a1.252,1.252,0,0,0,1.252,1.252h5.423V24.2A.834.834,0,0,1,17.522,25.031ZM9.1,21.516l-1.352-.393a.266.266,0,0,1-.181-.33l3.026-10.423a.266.266,0,0,1,.33-.181l1.352.393a.266.266,0,0,1,.181.33L9.431,21.335a.266.266,0,0,1-.33.181ZM6.575,19.03,7.539,18a.266.266,0,0,0-.018-.382L5.513,15.853l2.008-1.767a.266.266,0,0,0,.018-.382l-.964-1.029a.266.266,0,0,0-.376-.012L3,15.659a.266.266,0,0,0,0,.388l3.195,3a.266.266,0,0,0,.376-.012Zm7.251.012,3.195-3a.266.266,0,0,0,0-.388l-3.195-3a.266.266,0,0,0-.376.012L12.486,13.7a.266.266,0,0,0,.018.382l2.008,1.767L12.5,17.62a.266.266,0,0,0-.018.382l.964,1.029A.266.266,0,0,0,13.826,19.042Z" fill="#9fa6b2"/>
</svg>
