<svg xmlns="http://www.w3.org/2000/svg" width="16.75" height="22.333" viewBox="0 0 16.75 22.333">
  <path id="file-check" d="M16.137,4.272,12.478.613A2.094,2.094,0,0,0,11,0h-8.9A2.094,2.094,0,0,0,0,2.094V20.24a2.094,2.094,0,0,0,2.094,2.094H14.656A2.094,2.094,0,0,0,16.75,20.24V5.753a2.094,2.094,0,0,0-.613-1.48Zm-.987.987a.693.693,0,0,1,.183.324H11.167V1.417a.693.693,0,0,1,.324.183Zm-.494,15.678H2.094a.7.7,0,0,1-.7-.7V2.094a.7.7,0,0,1,.7-.7H9.771V5.932a1.047,1.047,0,0,0,1.047,1.047h4.536V20.24A.7.7,0,0,1,14.656,20.938Zm-1.5-9.2-5.88,5.832a.524.524,0,0,1-.74,0L3.6,14.62a.524.524,0,0,1,0-.741l.371-.37a.524.524,0,0,1,.741,0l2.2,2.207,5.138-5.1a.524.524,0,0,1,.741,0l.369.372a.524.524,0,0,1,0,.741Z" fill="#9fa6b2"/>
</svg>
