<svg xmlns="http://www.w3.org/2000/svg" width="20" height="26.672" viewBox="0 0 20 26.672">
  <path id="file" d="M19.266,5,14.9.634A2.5,2.5,0,0,0,13.13-.1H2.5A2.508,2.508,0,0,0,0,2.405V24.072a2.5,2.5,0,0,0,2.5,2.5h15a2.5,2.5,0,0,0,2.5-2.5V6.775A2.512,2.512,0,0,0,19.266,5ZM18.089,6.186a.819.819,0,0,1,.219.385H13.333V1.6a.819.819,0,0,1,.385.219ZM17.5,24.905H2.5a.836.836,0,0,1-.833-.833V2.405A.836.836,0,0,1,2.5,1.572h9.167V6.989a1.247,1.247,0,0,0,1.25,1.25h5.417V24.072A.836.836,0,0,1,17.5,24.905Z" transform="translate(0 0.1)" fill="#9fa6b2"/>
</svg>
