<svg xmlns="http://www.w3.org/2000/svg" width="25" height="20" viewBox="0 0 25 20">
  <path id="folders" d="M23.125,2.5h-7.5L13.491.366A1.25,1.25,0,0,0,12.607,0H6.875A1.875,1.875,0,0,0,5,1.875V5H1.875A1.875,1.875,0,0,0,0,6.875v11.25A1.875,1.875,0,0,0,1.875,20h16.25A1.875,1.875,0,0,0,20,18.125V15h3.125A1.875,1.875,0,0,0,25,13.125V4.375A1.875,1.875,0,0,0,23.125,2.5ZM18.75,18.125a.625.625,0,0,1-.625.625H1.875a.625.625,0,0,1-.625-.625V6.875a.625.625,0,0,1,.625-.625H5v6.875A1.875,1.875,0,0,0,6.875,15H18.75Zm5-5a.625.625,0,0,1-.625.625H6.875a.625.625,0,0,1-.625-.625V1.875a.625.625,0,0,1,.625-.625h5.732l2.134,2.134a1.25,1.25,0,0,0,.884.366h7.5a.625.625,0,0,1,.625.625Z" fill="#abb1bb"/>
</svg>
