<svg xmlns="http://www.w3.org/2000/svg" width="22.125" height="14.75" viewBox="0 0 22.125 14.75">
  <path id="folder-open" d="M20.279,70.146H18.437V68.3a1.844,1.844,0,0,0-1.844-1.844H10.448L7.99,64H1.844A1.844,1.844,0,0,0,0,65.844V76.906A1.844,1.844,0,0,0,1.844,78.75H16.634a3.074,3.074,0,0,0,2.635-1.492l2.591-4.32A1.845,1.845,0,0,0,20.279,70.146ZM1.844,65.229H7.48l2.458,2.458h6.655a.615.615,0,0,1,.615.615v1.844H6.575A3.074,3.074,0,0,0,3.94,71.638L1.229,76.156V65.844A.615.615,0,0,1,1.844,65.229Zm18.963,7.077-2.592,4.32a1.844,1.844,0,0,1-1.581.9H1.722l3.15-5.251a1.844,1.844,0,0,1,1.581-.9H20.28a.615.615,0,0,1,.527.931Z" transform="translate(0 -64)" fill="#9fa6b2"/>
</svg>
