<svg xmlns="http://www.w3.org/2000/svg" width="19.667" height="14.75" viewBox="0 0 19.667 14.75">
  <path id="folder" d="M7.48,65.229l2.1,2.1a1.229,1.229,0,0,0,.869.36h7.375a.614.614,0,0,1,.615.615v8.6a.614.614,0,0,1-.615.615H1.844a.614.614,0,0,1-.615-.615V65.844a.614.614,0,0,1,.615-.615H7.48M1.844,64A1.844,1.844,0,0,0,0,65.844V76.906A1.844,1.844,0,0,0,1.844,78.75H17.823a1.844,1.844,0,0,0,1.844-1.844V68.3a1.844,1.844,0,0,0-1.844-1.844H10.448l-2.1-2.1A1.229,1.229,0,0,0,7.48,64Z" transform="translate(0 -64)" fill="#9fa6b2"/>
</svg>
