<svg xmlns="http://www.w3.org/2000/svg" width="14" height="14" viewBox="0 0 14 14">
  <path id="globe" d="M7,8a7,7,0,1,0,7,7A7,7,0,0,0,7,8Zm5.453,4.29H10.125A8.214,8.214,0,0,0,8.905,9.211,6.123,6.123,0,0,1,12.453,12.29ZM9.484,15a13.341,13.341,0,0,1-.121,1.806H4.638a13.5,13.5,0,0,1,0-3.613H9.363A13.341,13.341,0,0,1,9.484,15ZM7,8.9c.759,0,1.733,1.245,2.2,3.387H4.8C5.267,10.148,6.241,8.9,7,8.9Zm-1.905.308A8.222,8.222,0,0,0,3.875,12.29H1.547A6.123,6.123,0,0,1,5.095,9.211ZM.9,15a6.058,6.058,0,0,1,.274-1.806H3.731A14.314,14.314,0,0,0,3.613,15a13.806,13.806,0,0,0,.119,1.806H1.177A6.058,6.058,0,0,1,.9,15Zm.644,2.71H3.875a8.214,8.214,0,0,0,1.219,3.079A6.123,6.123,0,0,1,1.547,17.71ZM7,21.1c-.759,0-1.733-1.245-2.2-3.387H9.2C8.733,19.852,7.759,21.1,7,21.1Zm1.905-.308a8.222,8.222,0,0,0,1.219-3.079h2.329A6.123,6.123,0,0,1,8.905,20.789Zm1.363-3.983A14.314,14.314,0,0,0,10.387,15a13.806,13.806,0,0,0-.119-1.806h2.554a6.1,6.1,0,0,1,0,3.613Z" transform="translate(0 -8)" fill="#9fa6b2"/>
</svg>
