<svg xmlns="http://www.w3.org/2000/svg" width="19.667" height="14.75" viewBox="0 0 19.667 14.75">
  <path id="image" d="M17.823,64H1.844A1.844,1.844,0,0,0,0,65.844V76.906A1.844,1.844,0,0,0,1.844,78.75H17.823a1.844,1.844,0,0,0,1.844-1.844V65.844A1.844,1.844,0,0,0,17.823,64Zm.615,12.906a.615.615,0,0,1-.615.615H1.844a.615.615,0,0,1-.615-.615V65.844a.615.615,0,0,1,.615-.615H17.823a.615.615,0,0,1,.615.615ZM4.3,70.453A2.151,2.151,0,1,0,2.151,68.3,2.151,2.151,0,0,0,4.3,70.453Zm0-3.073a.922.922,0,1,1-.922.922A.923.923,0,0,1,4.3,67.38Zm7.952.885L8.6,71.915,7.412,70.723a.922.922,0,0,0-1.3,0L2.728,74.1a.922.922,0,0,0-.27.652v1.076a.461.461,0,0,0,.461.461H16.747a.461.461,0,0,0,.461-.461V72.3a.922.922,0,0,0-.27-.652l-3.38-3.38A.922.922,0,0,0,12.254,68.265Zm3.725,6.8H3.688v-.18L6.76,71.81,8.6,73.653l4.3-4.3,3.073,3.073Z" transform="translate(0 -64)" fill="#9fa6b2"/>
</svg>
