<svg xmlns="http://www.w3.org/2000/svg" width="22.667" height="17.63" viewBox="0 0 22.667 17.63">
  <path id="images" d="M20.778,32H4.407a1.889,1.889,0,0,0-1.889,1.889v.63h-.63A1.889,1.889,0,0,0,0,36.407V47.741A1.889,1.889,0,0,0,1.889,49.63h16.37a1.889,1.889,0,0,0,1.889-1.889v-.63h.63a1.889,1.889,0,0,0,1.889-1.889V33.889A1.889,1.889,0,0,0,20.778,32ZM18.889,47.741a.63.63,0,0,1-.63.63H1.889a.63.63,0,0,1-.63-.63V36.407a.63.63,0,0,1,.63-.63h.63v9.444a1.889,1.889,0,0,0,1.889,1.889H18.889Zm2.519-2.519a.63.63,0,0,1-.63.63H4.407a.63.63,0,0,1-.63-.63V33.889a.63.63,0,0,1,.63-.63h16.37a.63.63,0,0,1,.63.63ZM6.926,38.611a2.2,2.2,0,1,0-2.2-2.2A2.2,2.2,0,0,0,6.926,38.611Zm0-3.148a.944.944,0,1,1-.944.944A.945.945,0,0,1,6.926,35.463Zm9.483.906a.944.944,0,0,0-1.336,0l-3.74,3.74-1.221-1.221a.944.944,0,0,0-1.336,0L5.314,42.351a.945.945,0,0,0-.277.668v1.1a.472.472,0,0,0,.472.472H19.676a.472.472,0,0,0,.472-.472V40.5a.945.945,0,0,0-.277-.668Zm2.48,6.964H6.3v-.184L9.444,40l1.889,1.889,4.407-4.407,3.148,3.148Z" transform="translate(0 -32)" fill="#9fa6b2"/>
</svg>
