<svg xmlns="http://www.w3.org/2000/svg" width="18.406" height="18.406" viewBox="0 0 18.406 18.406">
  <path id="link" d="M10.825,14.187,7.978,17.034a4.673,4.673,0,0,1-6.609-6.609L4.216,7.578q.062-.062.127-.122a.432.432,0,0,1,.726.3q.01.259.044.517a.433.433,0,0,1-.122.363L2.284,11.34a3.379,3.379,0,0,0,4.779,4.779L9.91,13.272l.013-.013a3.379,3.379,0,0,0-1-5.453.433.433,0,0,1-.256-.42,2.236,2.236,0,0,1,.1-.549.428.428,0,0,1,.572-.262,4.673,4.673,0,0,1,1.49,7.611ZM7.579,10.824a4.645,4.645,0,0,0,1.49,1,.428.428,0,0,0,.572-.262,2.236,2.236,0,0,0,.1-.549.433.433,0,0,0-.256-.42,3.379,3.379,0,0,1-1-5.453l.013-.013,2.847-2.847A3.379,3.379,0,0,1,16.12,7.062L13.413,9.769a.433.433,0,0,0-.122.363q.033.257.044.517a.432.432,0,0,0,.726.3q.065-.06.127-.122l2.847-2.847a4.673,4.673,0,0,0-6.609-6.609L7.579,4.215a4.679,4.679,0,0,0,0,6.609Z" transform="translate(0.001 0.002)" fill="#9fa6b2"/>
</svg>
