<svg xmlns="http://www.w3.org/2000/svg" width="13.5" height="15.428" viewBox="0 0 13.5 15.428">
  <path id="lock" d="M12.053,6.749h-.482V4.866A4.821,4.821,0,1,0,1.929,4.82V6.749H1.446A1.447,1.447,0,0,0,0,8.2v5.786a1.447,1.447,0,0,0,1.446,1.446H12.053A1.447,1.447,0,0,0,13.5,13.981V8.2A1.447,1.447,0,0,0,12.053,6.749ZM2.893,4.82a3.857,3.857,0,0,1,7.714,0V6.749H2.893Zm9.161,9.643H1.446a.484.484,0,0,1-.482-.482V8.2a.484.484,0,0,1,.482-.482H12.053a.484.484,0,0,1,.482.482v5.786A.484.484,0,0,1,12.053,14.463Z" transform="translate(0 0.001)" fill="#9fa6b2"/>
</svg>
