<svg xmlns="http://www.w3.org/2000/svg" width="18.406" height="18.406" viewBox="0 0 18.406 18.406">
  <path id="pen" d="M17.731,2.022,16.382.674a2.3,2.3,0,0,0-3.254,0L.461,13.341,0,17.447a.863.863,0,0,0,.856.958.882.882,0,0,0,.1-.005l4.1-.453L17.731,5.276a2.3,2.3,0,0,0,0-3.253ZM4.532,16.848l-3.344.371L1.56,13.87l9.486-9.486,2.975,2.975ZM16.917,4.463,14.835,6.545,11.859,3.57l2.082-2.082a1.151,1.151,0,0,1,1.627,0l1.348,1.348a1.152,1.152,0,0,1,0,1.627Z" transform="translate(0.001)" fill="#9fa6b2"/>
</svg>
