<svg xmlns="http://www.w3.org/2000/svg" width="17" height="17" viewBox="0 0 17 17">
  <path id="ruler-combined" d="M15.938,10.625H6.375V1.063A1.063,1.063,0,0,0,5.313,0H1.063A1.063,1.063,0,0,0,0,1.063V15.938A1.063,1.063,0,0,0,1.063,17H15.938A1.063,1.063,0,0,0,17,15.938v-4.25A1.063,1.063,0,0,0,15.938,10.625ZM1.063,1.063h4.25V3.188H3.453a.266.266,0,0,0-.266.266v.531a.266.266,0,0,0,.266.266H5.313V5.844H3.453a.266.266,0,0,0-.266.266v.531a.266.266,0,0,0,.266.266H5.313V8.5H3.453a.266.266,0,0,0-.266.266V9.3a.266.266,0,0,0,.266.266H5.313v1.374l-4.25,4.25ZM15.938,15.938H1.814l4.25-4.25H7.438v1.859a.266.266,0,0,0,.266.266h.531a.266.266,0,0,0,.266-.266V11.688h1.594v1.859a.266.266,0,0,0,.266.266h.531a.266.266,0,0,0,.266-.266V11.688H12.75v1.859a.266.266,0,0,0,.266.266h.531a.266.266,0,0,0,.266-.266V11.688h2.125Z" fill="#9fa6b2"/>
</svg>
