<svg xmlns="http://www.w3.org/2000/svg" width="20" height="20" viewBox="0 0 20 20">
  <path id="sliders-h-square" d="M17.857,32H2.143A2.143,2.143,0,0,0,0,34.143V49.857A2.143,2.143,0,0,0,2.143,52H17.857A2.143,2.143,0,0,0,20,49.857V34.143A2.143,2.143,0,0,0,17.857,32Zm.714,17.857a.716.716,0,0,1-.714.714H2.143a.716.716,0,0,1-.714-.714V34.143a.716.716,0,0,1,.714-.714H17.857a.716.716,0,0,1,.714.714ZM14.464,37.714H10V35.929a1.075,1.075,0,0,0-1.071-1.071H6.786a1.075,1.075,0,0,0-1.071,1.071v1.786H4.107a.537.537,0,0,0-.536.536v.357a.537.537,0,0,0,.536.536H5.714v1.786A1.075,1.075,0,0,0,6.786,42H8.929A1.075,1.075,0,0,0,10,40.929V39.143h4.464A.537.537,0,0,0,15,38.607V38.25A.537.537,0,0,0,14.464,37.714ZM8.571,40.571H7.143V36.286H8.571Zm6.607,4.286h-.893V43.071A1.075,1.075,0,0,0,13.214,42H11.071A1.075,1.075,0,0,0,10,43.071v1.786H4.821a.537.537,0,0,0-.536.536v.357a.537.537,0,0,0,.536.536H10v1.786a1.075,1.075,0,0,0,1.071,1.071h2.143a1.075,1.075,0,0,0,1.071-1.071V46.286h.893a.537.537,0,0,0,.536-.536v-.357A.537.537,0,0,0,15.179,44.857Zm-2.321,2.857H11.429V43.429h1.429Z" transform="translate(0 -32)" fill="#9fa6b2"/>
</svg>
