<svg xmlns="http://www.w3.org/2000/svg" width="16.105" height="18.406" viewBox="0 0 16.105 18.406">
  <path id="trash" d="M15.817,2.3H12.079L10.871.69A1.726,1.726,0,0,0,9.49,0H6.614a1.726,1.726,0,0,0-1.38.69L4.026,2.3H.288A.288.288,0,0,0,0,2.588v.575a.288.288,0,0,0,.288.288H.967L2.16,16.835a1.726,1.726,0,0,0,1.718,1.571h8.347a1.725,1.725,0,0,0,1.718-1.571L15.138,3.451h.679a.288.288,0,0,0,.288-.288V2.588A.288.288,0,0,0,15.817,2.3ZM6.154,1.38a.579.579,0,0,1,.46-.23H9.49a.579.579,0,0,1,.46.23l.69.92H5.464ZM12.8,16.73a.572.572,0,0,1-.572.525H3.879a.572.572,0,0,1-.572-.525L2.121,3.451H13.984Z" fill="#9fa6b2"/>
</svg>
